<svg id="visual" viewBox="0 0 900 600" width="900" height="600" xmlns="http://www.w3.org/2000/svg" xmlns:xlink="http://www.w3.org/1999/xlink" version="1.1"><rect x="0" y="0" width="900" height="600" fill="#f6f6f6"></rect><defs><linearGradient id="grad1_0" x1="33.3%" y1="100%" x2="100%" y2="0%"><stop offset="20%" stop-color="#50bcc8" stop-opacity="1"></stop><stop offset="80%" stop-color="#50bcc8" stop-opacity="1"></stop></linearGradient></defs><defs><linearGradient id="grad1_1" x1="33.3%" y1="100%" x2="100%" y2="0%"><stop offset="20%" stop-color="#50bcc8" stop-opacity="1"></stop><stop offset="80%" stop-color="#abd9df" stop-opacity="1"></stop></linearGradient></defs><defs><linearGradient id="grad1_2" x1="33.3%" y1="100%" x2="100%" y2="0%"><stop offset="20%" stop-color="#f6f6f6" stop-opacity="1"></stop><stop offset="80%" stop-color="#abd9df" stop-opacity="1"></stop></linearGradient></defs><defs><linearGradient id="grad2_0" x1="0%" y1="100%" x2="66.7%" y2="0%"><stop offset="20%" stop-color="#50bcc8" stop-opacity="1"></stop><stop offset="80%" stop-color="#50bcc8" stop-opacity="1"></stop></linearGradient></defs><defs><linearGradient id="grad2_1" x1="0%" y1="100%" x2="66.7%" y2="0%"><stop offset="20%" stop-color="#abd9df" stop-opacity="1"></stop><stop offset="80%" stop-color="#50bcc8" stop-opacity="1"></stop></linearGradient></defs><defs><linearGradient id="grad2_2" x1="0%" y1="100%" x2="66.7%" y2="0%"><stop offset="20%" stop-color="#abd9df" stop-opacity="1"></stop><stop offset="80%" stop-color="#f6f6f6" stop-opacity="1"></stop></linearGradient></defs><g transform="translate(900, 600)"><path d="M-270.4 0C-252.2 -29.4 -234 -58.9 -223.6 -92.6C-213.1 -126.4 -210.5 -164.4 -191.2 -191.2C-171.9 -218 -136 -233.5 -101.4 -244.8C-66.8 -256.1 -33.4 -263.3 0 -270.4L0 0Z" fill="#d1e8ea"></path><path d="M-180.3 0C-168.1 -19.6 -156 -39.2 -149.1 -61.7C-142.1 -84.2 -140.3 -109.6 -127.5 -127.5C-114.6 -145.3 -90.7 -155.7 -67.6 -163.2C-44.5 -170.8 -22.3 -175.5 0 -180.3L0 0Z" fill="#82cbd3"></path><path d="M-90.1 0C-84.1 -9.8 -78 -19.6 -74.5 -30.9C-71 -42.1 -70.2 -54.8 -63.7 -63.7C-57.3 -72.7 -45.3 -77.8 -33.8 -81.6C-22.3 -85.4 -11.1 -87.8 0 -90.1L0 0Z" fill="#50bcc8"></path></g><g transform="translate(0, 0)"><path d="M270.4 0C257.9 32.9 245.4 65.8 231 95.7C216.5 125.5 200.2 152.3 179.6 179.6C159 206.9 134.1 234.6 103.5 249.8C72.8 265 36.4 267.7 0 270.4L0 0Z" fill="#d1e8ea"></path><path d="M180.3 0C171.9 21.9 163.6 43.9 154 63.8C144.4 83.7 133.5 101.6 119.7 119.7C106 137.9 89.4 156.4 69 166.6C48.6 176.7 24.3 178.5 0 180.3L0 0Z" fill="#82cbd3"></path><path d="M90.1 0C86 11 81.8 21.9 77 31.9C72.2 41.8 66.7 50.8 59.9 59.9C53 69 44.7 78.2 34.5 83.3C24.3 88.3 12.1 89.2 0 90.1L0 0Z" fill="#50bcc8"></path></g></svg>